{
    "asset": {
        "generator": "SOLIDWORKSGLTF",
        "version": "2.0"
    },
    "scene": 0,
    "scenes": [
        {
            "name": "Default",
            "nodes": [
                0,
                1
            ]
        }
    ],
    "nodes": [
        {
            "matrix": [
                0.9493070170648665,
                -0.2832298171971275,
                0.13637103065492753,
                0.0,
                0.2808310660646812,
                0.9590465865578294,
                0.03692637464943982,
                0.0,
                -0.1412448217966948,
                0.0032427553496832,
                0.9899693858162292,
                0.0,
                -0.3026975689499444,
                0.10657214413836652,
                2.211573892830943,
                1.0
            ],
            "camera": 0,
            "name": "current camera"
        },
        {
            "mesh": 0,
            "name": "SumoBlue Chassis Redesign 4-13-2026"
        }
    ],
    "cameras": [
        {
            "type": "orthographic",
            "orthographic": {
                "xmag": 0.27819482474462676,
                "ymag": 0.21496872821175703,
                "zfar": 2.4851588058664937,
                "znear": 1.9720259018788446
            }
        }
    ],
    "meshes": [
        {
            "primitives": [
                {
                    "attributes": {
                        "POSITION": 1,
                        "NORMAL": 2
                    },
                    "indices": 0,
                    "material": 0,
                    "mode": 4
                }
            ]
        }
    ],
    "accessors": [
        {
            "bufferView": 0,
            "byteOffset": 0,
            "componentType": 5125,
            "count": 206379,
            "type": "SCALAR",
            "min": [
                0
            ],
            "max": [
                88168
            ]
        },
        {
            "bufferView": 1,
            "byteOffset": 0,
            "componentType": 5126,
            "count": 88169,
            "type": "VEC3",
            "min": [
                -0.10000000149011612,
                -0.006000000052154064,
                0.0
            ],
            "max": [
                0.10000000149011612,
                0.20524539053440094,
                0.18000000715255737
            ]
        },
        {
            "bufferView": 2,
            "byteOffset": 0,
            "componentType": 5126,
            "count": 88169,
            "type": "VEC3",
            "min": [
                -1.0,
                -1.0,
                -1.0
            ],
            "max": [
                1.0,
                1.0,
                1.0
            ]
        }
    ],
    "materials": [
        {
            "name": "PlasticPolystyrene",
            "pbrMetallicRoughness": {
                "baseColorFactor": [
                    1.0,
                    1.0,
                    1.0,
                    1.0
                ],
                "metallicFactor": 0.0,
                "roughnessFactor": 1.0
            }
        }
    ],
    "bufferViews": [
        {
            "buffer": 0,
            "byteOffset": 0,
            "byteLength": 825516,
            "target": 34963
        },
        {
            "buffer": 0,
            "byteOffset": 825516,
            "byteLength": 1058028,
            "byteStride": 12,
            "target": 34962
        },
        {
            "buffer": 0,
            "byteOffset": 1883544,
            "byteLength": 1058028,
            "byteStride": 12,
            "target": 34962
        }
    ],
    "buffers": [
        {
            "uri": "SumoBlue Chassis Redesign 4-13-2026.bin",
            "byteLength": 2941572
        }
    ]
}
